<svg width="477" height="532" viewBox="0 0 477 532" fill="000000" xmlns="http://www.w3.org/2000/svg">
<path d="M334.522 496.312L334.533 496.307L334.543 496.302C378.238 475.283 411.924 445.176 435.432 405.984C459.46 366.777 471.38 320.665 471.38 267.842C471.38 215.021 459.462 168.68 435.453 128.998C411.961 88.8325 378.283 58.2192 334.574 37.1869C291.394 15.6722 241.096 5 183.823 5H10H5V10V522V527H10H183.823C241.078 527 291.356 516.826 334.522 496.312ZM323.522 401.29C291.558 432.514 245.256 448.488 183.823 448.488H102.294V83.5122H183.823C245.217 83.5122 291.499 99.9546 323.469 132.131C355.491 164.361 371.789 209.372 371.789 267.842C371.789 325.815 355.497 370.054 323.522 401.29Z" stroke="black" stroke-width="10"/>
</svg>
